<svg xmlns="http://www.w3.org/2000/svg" width="724.724" height="476.684" viewBox="0 0 724.724 476.684">
  <g id="undraw_upvote_re_qn2k" transform="translate(0 0)">
    <path id="Path_1" data-name="Path 1" d="M945.862,646.206H305.023a16.519,16.519,0,0,1-16.5-16.5V234.552a12.1,12.1,0,0,1,12.088-12.088H950.065a12.311,12.311,0,0,1,12.3,12.3V629.706a16.519,16.519,0,0,1-16.5,16.5Z" transform="translate(-237.638 -211.658)" fill="#f2f2f2"/>
    <path id="Path_2" data-name="Path 2" d="M925.142,625.373H327.9c-8.755,0-15.878-6.67-15.878-14.868V266.4c0-6.08,5.278-11.027,11.766-11.027H929.059c6.6,0,11.961,5.028,11.961,11.209V610.505C941.02,618.7,933.9,625.373,925.142,625.373Z" transform="translate(-237.638 -211.658)" fill="#fff"/>
    <path id="Path_3" data-name="Path 3" d="M962.132,236.608H288.292v-8.4a16.574,16.574,0,0,1,16.56-16.55h640.72a16.574,16.574,0,0,1,16.56,16.55Z" transform="translate(-237.638 -211.658)" fill="#3f3d56"/>
    <circle id="Ellipse_1" data-name="Ellipse 1" cx="4.283" cy="4.283" r="4.283" transform="translate(76.466 8.217)" fill="#fff"/>
    <circle id="Ellipse_2" data-name="Ellipse 2" cx="4.283" cy="4.283" r="4.283" transform="translate(92.724 8.217)" fill="#fff"/>
    <circle id="Ellipse_3" data-name="Ellipse 3" cx="4.283" cy="4.283" r="4.283" transform="translate(108.984 8.217)" fill="#fff"/>
    <rect id="Rectangle_2" data-name="Rectangle 2" width="324" height="41.028" rx="20.514" transform="translate(253.839 136.382)" fill="#e6e6e6"/>
    <rect id="Rectangle_3" data-name="Rectangle 3" width="324" height="41.028" rx="20.514" transform="translate(253.839 204.27)" fill="#e6e6e6"/>
    <rect id="Rectangle_4" data-name="Rectangle 4" width="324" height="41.028" rx="20.514" transform="translate(253.839 272.159)" fill="#e6e6e6"/>
    <circle id="Ellipse_4" data-name="Ellipse 4" cx="21" cy="21" r="21" transform="translate(196.839 203.784)" fill="#e6e6e6"/>
    <path id="Path_4" data-name="Path 4" d="M462.975,435l-6.376-6.858a1.53,1.53,0,0,0-2.242,0L447.979,435a1,1,0,1,0,1.466,1.363l5.031-5.412v13.289a1,1,0,0,0,2,0V430.942l5.033,5.416A1,1,0,0,0,462.975,435Z" transform="translate(-237.638 -211.658)" fill="#fff"/>
    <circle id="Ellipse_5" data-name="Ellipse 5" cx="21" cy="21" r="21" transform="translate(196.839 271.673)" fill="#e6e6e6"/>
    <path id="Path_5" data-name="Path 5" d="M462.975,502.884l-6.376-6.858a1.53,1.53,0,0,0-2.242,0l-6.377,6.858a1,1,0,1,0,1.466,1.363l5.031-5.412v13.288a1,1,0,0,0,2,0V498.831l5.033,5.416a1,1,0,1,0,1.466-1.363Z" transform="translate(-237.638 -211.658)" fill="#fff"/>
    <circle id="Ellipse_6" data-name="Ellipse 6" cx="21" cy="21" r="21" transform="translate(196.839 135.895)" fill="#ffcb05"/>
    <path id="Path_6" data-name="Path 6" d="M462.975,367.107l-6.376-6.858a1.531,1.531,0,0,0-2.242,0l-6.377,6.858a1,1,0,1,0,1.466,1.363l5.031-5.412v13.288a1,1,0,0,0,2,0V363.054l5.033,5.416a1,1,0,1,0,1.466-1.363Z" transform="translate(-237.638 -211.658)" fill="#fff"/>
    <path id="Path_7" data-name="Path 7" d="M435.785,367.992A10.056,10.056,0,0,0,424.8,378.811l-32.707,14.4,15.6,10.071,28.667-15.214a10.11,10.11,0,0,0-.576-20.071Z" transform="translate(-237.638 -211.658)" fill="#a0616a"/>
    <circle id="Ellipse_7" data-name="Ellipse 7" cx="24.561" cy="24.561" r="24.561" transform="translate(41.654 89.256)" fill="#a0616a"/>
    <path id="Path_8" data-name="Path 8" d="M110.667,464.031h12.26l5.832-47.288H110.665Z" fill="#a0616a"/>
    <path id="Path_9" data-name="Path 9" d="M345.178,671.686h24.145a15.386,15.386,0,0,1,15.386,15.386v.5h-39.53Z" transform="translate(-237.638 -211.658)" fill="#2f2e41"/>
    <path id="Path_10" data-name="Path 10" d="M59.667,464.031h12.26l5.832-47.288H59.665Z" fill="#a0616a"/>
    <path id="Path_11" data-name="Path 11" d="M294.178,671.686h24.145a15.386,15.386,0,0,1,15.386,15.386v.5h-39.53Z" transform="translate(-237.638 -211.658)" fill="#2f2e41"/>
    <path id="Path_12" data-name="Path 12" d="M294.91,664.492a4.5,4.5,0,0,1-1.524-3.36l-.577-177.2,64.022-2.468.47-.018L367.83,587.737l1.319,67.714a4.485,4.485,0,0,1-3.973,4.557l-15.54,1.829a4.5,4.5,0,0,1-5.023-4.295L341.846,585.6l-13.434-44.784a1.5,1.5,0,0,0-2.857.554l-5.229,117.764a4.493,4.493,0,0,1-3.944,4.235l-17.946,2.209a4.489,4.489,0,0,1-3.525-1.091Z" transform="translate(-237.638 -211.658)" fill="#2f2e41"/>
    <path id="Path_13" data-name="Path 13" d="M290.865,490.219,271.9,413.19c-5.91-24,7.591-48.169,30.1-53.872a38.2,38.2,0,0,1,31.108,5.547,44.132,44.132,0,0,1,18.68,30.792l12.39,91.191a4.5,4.5,0,0,1-4.341,5.1l-64.479,1.689h-.117a4.527,4.527,0,0,1-4.37-3.424Z" transform="translate(-237.638 -211.658)" fill="#ffcb05"/>
    <path id="Path_14" data-name="Path 14" d="M370.326,419.055,322.238,395.7a16.155,16.155,0,1,1,16.446-27.678l38.909,27.786,42-16.726a4.484,4.484,0,0,1,4.932,1.087l5.665,5.98a4.5,4.5,0,0,1-.8,6.856l-37.6,24.67a21.882,21.882,0,0,1-21.464,1.381Z" transform="translate(-237.638 -211.658)" fill="#ffcb05"/>
    <path id="Path_15" data-name="Path 15" d="M294.354,348.494a12.908,12.908,0,0,1-5.6-1.156c-.783-.345-1.6-.628-2.378-.973-6.9-3.045-11.453-11.439-11.616-19.887a30.305,30.305,0,0,1,9.36-22.05,33.71,33.71,0,0,1,20.441-8.819c7.95-.691,16.9,1.61,21.344,9.168a8.845,8.845,0,0,1,1.309,6.882,4.5,4.5,0,0,1-1.087,1.906c-1.984,2.015-3.962.5-5.984.366-2.78-.184-5.277,2.385-6.174,5.394s-.5,6.322.222,9.391l.013.057a5.149,5.149,0,0,1-4.56,6.277c-3.057.276-6.416.448-7.375,0-1.877-.881-4.4-.685-5.492,1.267a7.61,7.61,0,0,0-.694,2.289c-.98,5.095-.754,4.795-1.734,9.89Z" transform="translate(-237.638 -211.658)" fill="#2f2e41"/>
    <path id="Path_16" data-name="Path 16" d="M287.408,531.1a10.056,10.056,0,0,0-3.573-15l4.606-35.437L271.75,488.8l-1.815,32.4a10.11,10.11,0,0,0,17.473,9.893Z" transform="translate(-237.638 -211.658)" fill="#a0616a"/>
    <path id="Path_17" data-name="Path 17" d="M289.324,509.508a4.6,4.6,0,0,1-.937.22l-16.845,2.13a4.5,4.5,0,0,1-5.064-4.469l.133-117.622a14.265,14.265,0,0,1,12.16-14.027h0a14.189,14.189,0,0,1,16.15,15.406l-4.894,50.688,2.294,63.266a4.474,4.474,0,0,1-3,4.408Z" transform="translate(-237.638 -211.658)" fill="#ffcb05"/>
    <path id="Path_18" data-name="Path 18" d="M444.638,688.342h-206a1,1,0,1,1,0-2h206a1,1,0,0,1,0,2Z" transform="translate(-237.638 -211.658)" fill="#ccc"/>
  </g>
</svg>
